<svg xmlns="http://www.w3.org/2000/svg" width="1900" height="814" viewBox="0 0 1900 814" fill="none">
    <g opacity="0.37">
        <path opacity="0.37"
            d="M1932.44 0C1932.44 0 1923.62 709.568 1919.43 709.578C1798.54 709.787 -0.0100046 712.926 4.17388e-08 711.367C0.340157 673.461 13.6063 209.313 14.2466 183.692C14.2547 183.473 14.3211 183.261 14.4389 183.076C14.5567 182.892 14.7217 182.742 14.9169 182.642C70.1923 154.913 270.915 71.1337 611.691 111.959C865.048 142.307 933.84 166.199 1235.98 151.944C1544.03 137.429 1927.92 9.33655 1932.56 0"
            transform="translate(-16.7695 73.3301)" fill="white" />
    </g>
    <path
        d="M1928.66 0C1928.66 0 1921.7 720.148 1917.48 720.178C1796.6 721.028 0 723.023 0 721.463C0.140064 683.557 11.0051 219.349 11.4853 193.728C11.4924 193.511 11.5573 193.299 11.6733 193.114C11.7894 192.93 11.9523 192.78 12.1456 192.679C67.291 164.689 267.543 79.8305 608.57 118.876C862.087 147.865 930.978 171.427 1233.04 155.612C1541.01 139.478 1924.22 9.38653 1928.81 0.0499846"
        transform="translate(-17.5 94)" fill="#0E2632"/>
    <path fill-rule="evenodd" clip-rule="evenodd"
        d="M1818.51 93.1516C1708.3 137.471 1559.13 184.704 1401 203.169C1138.21 233.847 979.433 204.43 775.443 166.637C743.133 160.652 709.69 154.455 674.519 148.255C328.645 87.3083 55.9554 239.663 0.589964 280.117L0 279.31C55.5056 238.754 328.467 86.2615 674.692 147.27C709.873 153.472 743.323 159.669 775.635 165.656C979.613 203.445 1138.25 232.835 1400.88 202.175C1558.9 183.724 1707.98 136.522 1818.13 92.2239C1873.21 70.0754 1918.54 48.6553 1950.39 31.9224C1966.31 23.5556 1978.85 16.3633 1987.55 10.8401C1991.91 8.07782 1995.29 5.73809 1997.65 3.88141C1998.83 2.95256 1999.74 2.15148 2000.39 1.48438C2001.06 0.801184 2001.4 0.309525 2001.5 0L2002.45 0.313957C2002.27 0.857242 2001.79 1.48853 2001.11 2.18295C2000.42 2.89347 1999.46 3.72467 1998.27 4.66731C1995.87 6.55362 1992.45 8.91372 1988.09 11.6844C1979.36 17.2271 1966.79 24.4333 1950.85 32.8077C1918.98 49.5574 1873.61 70.9915 1818.51 93.1516Z"
        transform="translate(-73)" fill="white" />
    <path fill-rule="evenodd" clip-rule="evenodd"
        d="M1818.99 93.7725C1708.76 138.103 1559.54 185.351 1401.35 203.822C1138.49 234.509 979.638 205.08 775.642 167.285C743.334 161.3 709.893 155.104 674.727 148.904C329.029 87.9887 56.4753 240.275 1.17993 280.678L0 279.063C55.5756 238.456 328.673 85.8951 675.074 146.935C710.26 153.138 743.713 159.335 776.026 165.322C979.999 203.11 1138.57 232.486 1401.12 201.836C1559.08 183.391 1708.12 136.204 1818.24 91.9169C1873.3 69.7743 1918.62 48.3613 1950.45 31.6368C1966.36 23.2737 1978.9 16.0884 1987.58 10.575C1991.93 7.81684 1995.29 5.48731 1997.63 3.64544C1998.8 2.72349 1999.7 1.93746 2000.33 1.29207C2000.99 0.614492 2001.26 0.192645 2001.32 0L2003.22 0.627915C2003 1.28808 2002.45 1.98918 2001.76 2.68922C2001.05 3.42144 2000.08 4.2677 1998.87 5.21724C1996.45 7.11836 1993.02 9.48865 1988.65 12.2635C1979.91 17.816 1967.32 25.0291 1951.38 33.4073C1919.49 50.1654 1874.11 71.6065 1818.99 93.7725Z"
        transform="translate(-10.9766 54.373)" fill="#B3D1DC"/>
    <path fill-rule="evenodd" clip-rule="evenodd"
        d="M596.103 18.2121C261.534 -39.8816 62.8973 73.5417 1.57686 116.837C1.1257 117.156 0.501724 117.048 0.18318 116.597C-0.135365 116.146 -0.0278561 115.522 0.423307 115.203C62.0794 71.6709 261.245 -41.9617 596.445 16.2416C596.989 16.3361 597.354 16.8538 597.259 17.3979C597.165 17.942 596.647 18.3066 596.103 18.2121Z"
        transform="translate(5.94141 151.146)" fill="#0E2632"/>
    <path fill-rule="evenodd" clip-rule="evenodd"
        d="M0.0155852 0.825253C0.112188 0.281483 0.631314 -0.0810178 1.17508 0.0155852C52.5593 9.1442 96.4374 17.8458 136.293 25.7496C291.614 56.5518 385.837 75.2374 625.123 59.8601C625.675 59.8247 626.15 60.2427 626.185 60.7939C626.221 61.345 625.803 61.8205 625.252 61.856C385.695 77.2507 291.242 58.519 135.86 27.7038C96.0134 19.8015 52.1601 11.1046 0.825253 1.98475C0.281483 1.88815 -0.0810178 1.36902 0.0155852 0.825253Z"
        transform="translate(610.059 168.934)" fill="#0E2632"/>
    <path fill-rule="evenodd" clip-rule="evenodd"
        d="M696.236 0.369582C696.584 0.798282 696.519 1.42807 696.09 1.77626C692.192 4.94214 683.072 10.3774 669.61 17.4805C656.115 24.6006 638.181 33.4357 616.591 43.4046C573.409 63.3428 515.581 87.8255 449.354 112.204C316.915 160.955 150.817 209.316 1.07152 220.047C0.520648 220.086 0.0420765 219.672 0.0026008 219.121C-0.0368749 218.57 0.377694 218.091 0.928566 218.052C150.401 207.341 316.295 159.052 448.663 110.327C514.84 85.9673 572.619 61.505 615.752 41.5888C637.32 31.6305 655.221 22.8112 668.676 15.7116C682.164 8.59512 691.109 3.24563 694.829 0.223802C695.258 -0.124386 695.888 -0.0591173 696.236 0.369582Z"
        transform="translate(1243.22 10.1426)" fill="#0E2632"/>
    <path d="M0.994425 0L10.2947 0.0672974L10.2286 2.06721L0 1.99776L0.994425 0Z"
        transform="translate(601.25 167.195) rotate(9.59333)" fill="#0E2632" />
    <path d="M0 0.609375L9.14062 0L9.32422 1.99219L0.0976562 2.60938L0 0.609375Z" transform="translate(1235.06 228.191)"
        fill="#0E2632" />
</svg>